<svg width="51" height="51" viewBox="0 0 51 51" fill="none" xmlns="http://www.w3.org/2000/svg">
<rect x="0.5" y="0.404297" width="50" height="50" rx="10" fill="#FEAD3A" fill-opacity="0.1"/>
<path d="M24.7363 17.4991H28.4899L32.6063 13.3701C32.7226 13.2528 32.861 13.1597 33.0135 13.0962C33.166 13.0327 33.3295 13 33.4947 13C33.6599 13 33.8234 13.0327 33.9759 13.0962C34.1283 13.1597 34.2667 13.2528 34.383 13.3701L37.6111 16.6107C37.8442 16.8451 37.975 17.1623 37.975 17.4928C37.975 17.8234 37.8442 18.1405 37.6111 18.3749L34.7459 21.2527H24.7363V23.7551C24.7363 24.0869 24.6045 24.4051 24.3698 24.6398C24.1352 24.8744 23.8169 25.0063 23.4851 25.0063C23.1532 25.0063 22.835 24.8744 22.6004 24.6398C22.3657 24.4051 22.2339 24.0869 22.2339 23.7551V20.0015C22.2339 19.3378 22.4975 18.7013 22.9668 18.232C23.4361 17.7627 24.0726 17.4991 24.7363 17.4991ZM17.2291 23.7551V28.7599L14.3638 31.6251C14.1308 31.8595 14 32.1766 14 32.5072C14 32.8377 14.1308 33.1549 14.3638 33.3893L17.5919 36.6299C17.7082 36.7472 17.8466 36.8403 17.9991 36.9038C18.1516 36.9673 18.3151 37 18.4803 37C18.6455 37 18.809 36.9673 18.9615 36.9038C19.1139 36.8403 19.2523 36.7472 19.3686 36.6299L24.7363 31.2623H29.7411C30.0729 31.2623 30.3912 31.1304 30.6258 30.8958C30.8605 30.6611 30.9923 30.3429 30.9923 30.0111V28.7599H32.2435C32.5753 28.7599 32.8936 28.628 33.1282 28.3934C33.3629 28.1587 33.4947 27.8405 33.4947 27.5087V26.2575H34.7459C35.0777 26.2575 35.396 26.1256 35.6306 25.891C35.8653 25.6563 35.9971 25.3381 35.9971 25.0063V23.7551H27.2387V25.0063C27.2387 25.6699 26.975 26.3064 26.5057 26.7757C26.0365 27.245 25.4 27.5087 24.7363 27.5087H22.2339C21.5702 27.5087 20.9337 27.245 20.4644 26.7757C19.9951 26.3064 19.7315 25.6699 19.7315 25.0063V21.2527L17.2291 23.7551Z" fill="#FEAD3A"/>
</svg>
